<svg xmlns="http://www.w3.org/2000/svg" width="256" height="256" viewBox="0 0 100 100"><rect width="100" height="100" rx="20" fill="#ffffff"></rect><path fill="#000000" d="M30.91 62.72L28.84 56.60L16.51 56.60Q16.19 57.52 15.82 58.60Q15.45 59.68 15.11 60.72Q14.76 61.75 14.44 62.65Q14.12 63.55 13.94 64.14L13.94 64.14Q13.29 64.42 12.42 64.42L12.42 64.42Q11.68 64.42 11.11 64.03Q10.53 63.64 10.53 62.77L10.53 62.77Q10.53 62.35 10.67 61.91Q10.81 61.48 10.99 60.97L10.99 60.97Q11.68 59.04 12.76 56.00Q13.84 52.97 15.11 49.54Q16.37 46.11 17.68 42.64Q19.00 39.17 20.10 36.41L20.10 36.41Q20.47 36.22 21.20 36.04Q21.94 35.85 22.72 35.85L22.72 35.85Q23.64 35.85 24.49 36.13Q25.34 36.41 25.57 37.05L25.57 37.05Q26.68 39.72 27.94 43.15Q29.21 46.57 30.50 50.16Q31.78 53.75 32.96 57.22Q34.13 60.70 35.05 63.50L35.05 63.50Q34.68 63.91 34.18 64.17Q33.67 64.42 33.03 64.42L33.03 64.42Q32.15 64.42 31.69 64.03Q31.23 63.64 30.91 62.72L30.91 62.72ZM22.86 38.98L22.68 38.98Q22.17 40.36 21.53 42.13Q20.88 43.91 20.19 45.84Q19.50 47.77 18.81 49.75Q18.12 51.72 17.52 53.52L17.52 53.52L27.87 53.52Q27.18 51.45 26.45 49.36Q25.71 47.26 25.04 45.33Q24.38 43.40 23.80 41.77Q23.23 40.13 22.86 38.98L22.86 38.98ZM44.25 53.47L44.25 63.96Q43.97 64.05 43.51 64.17Q43.05 64.28 42.50 64.28L42.50 64.28Q40.48 64.28 40.48 62.58L40.48 62.58L40.48 38.11Q40.48 37.37 40.85 36.98Q41.21 36.59 42.00 36.36L42.00 36.36Q43.33 35.95 45.28 35.76Q47.24 35.58 49.08 35.58L49.08 35.58Q54.88 35.58 57.70 37.90Q60.53 40.22 60.53 44.50L60.53 44.50Q60.53 47.68 58.90 49.84Q57.27 52.00 53.96 52.92L53.96 52.92Q55.11 54.39 56.26 55.86Q57.41 57.34 58.44 58.65Q59.48 59.96 60.28 61.02Q61.09 62.07 61.55 62.67L61.55 62.67Q61.36 63.45 60.74 63.91Q60.12 64.38 59.48 64.38L59.48 64.38Q58.69 64.38 58.19 64.01Q57.68 63.64 57.13 62.86L57.13 62.86L50.41 53.47L44.25 53.47ZM44.20 50.34L49.49 50.34Q52.90 50.34 54.83 48.87Q56.76 47.40 56.76 44.50L56.76 44.50Q56.76 41.60 54.74 40.16Q52.71 38.71 48.94 38.71L48.94 38.71Q47.70 38.71 46.44 38.82Q45.17 38.94 44.20 39.12L44.20 39.12L44.20 50.34ZM89.47 63.96L89.47 63.96Q89.19 64.05 88.73 64.17Q88.27 64.28 87.72 64.28L87.72 64.28Q85.70 64.28 85.70 62.58L85.70 62.58L85.70 51.45L71.34 51.45L71.34 63.96Q71.07 64.05 70.61 64.17Q70.15 64.28 69.60 64.28L69.60 64.28Q67.57 64.28 67.57 62.58L67.57 62.58L67.57 36.18Q67.80 36.08 68.28 35.97Q68.77 35.85 69.32 35.85L69.32 35.85Q71.34 35.85 71.34 37.56L71.34 37.56L71.34 48.32L85.70 48.32L85.70 36.18Q85.93 36.08 86.41 35.97Q86.89 35.85 87.44 35.85L87.44 35.85Q89.47 35.85 89.47 37.56L89.47 37.56L89.47 63.96Z"></path></svg>